<svg id="Layer_1" data-name="Layer 1" xmlns="http://www.w3.org/2000/svg" viewBox="0 0 4875.68 971.41"><defs><style>.cls-1{fill:#f88211;}.cls-2{fill:#43a52e;}.cls-3{font-size:723px;stroke:#000;stroke-miterlimit:10;stroke-width:2px;font-family:Helvetica;font-weight:700;}.cls-4{letter-spacing:-39px;}</style></defs><title>carrot-logo_v1</title><rect class="cls-1" x="109.1" y="554.45" width="246.64" height="98.58" rx="43.2" ry="43.2" transform="translate(366.67 -36.03) rotate(45)"/><rect class="cls-1" x="148.86" y="443.17" width="358.25" height="130.01" rx="43.2" ry="43.2" transform="translate(327.09 -131.59) rotate(45)"/><rect class="cls-1" x="211.92" y="318.67" width="463.47" height="147.66" rx="43.2" ry="43.2" transform="translate(279.17 -247.27) rotate(45)"/><path class="cls-2" d="M532.79,73.92S637.9,85.53,634.72,147.64s-87.6,151.3-129,151.3C470.67,298.95,408.56,73.92,532.79,73.92Z" transform="translate(-128.31 -48.51)"/><path class="cls-2" d="M703.06,304.9s9.12,66.74-34.73,76.33-119.88-25.68-126.66-51.12C535.93,308.58,682.71,228.58,703.06,304.9Z" transform="translate(-128.31 -48.51)"/><text x="-128.31" y="-48.51"/><path class="cls-2" d="M1843.15,172.14s0.07-45.07,24.26-46.58,62.29,30.15,64,47.69C1932.91,188.09,1848.37,224.77,1843.15,172.14Z" transform="translate(-128.31 -48.51)"/><path class="cls-2" d="M1925.44,89.36s25.46-6.94,31,11.2-4.9,52-14.47,56C1933.9,160,1896.74,101.49,1925.44,89.36Z" transform="translate(-128.31 -48.51)"/><path class="cls-2" d="M3288.18,80.23s45.41-10.55,52.64,13.46-15.68,69.84-32.94,75.73C3293.26,174.4,3236.4,97.9,3288.18,80.23Z" transform="translate(-128.31 -48.51)"/><path class="cls-2" d="M3390.95,143.6s13,24-4,33.89-53.5,7.31-59.83-1.37C3321.79,168.77,3372,117.55,3390.95,143.6Z" transform="translate(-128.31 -48.51)"/><path class="cls-2" d="M4715.34,542.1s21.43-12.25,33.3,3.32,14.41,49.39,6.88,55.34C4749.15,605.78,4692.76,559.92,4715.34,542.1Z" transform="translate(-128.31 -48.51)"/><path class="cls-2" d="M4799.4,529.84s18.68,12,8.13,32.79-41.3,44.41-49.38,41.22C4751.3,601.14,4775.14,520.27,4799.4,529.84Z" transform="translate(-128.31 -48.51)"/><text class="cls-3" transform="translate(696.6 622.68)">CARRO<tspan class="cls-4" x="2650.88" y="0">T</tspan><tspan x="3052.98" y="0">-JS</tspan></text></svg>